<svg width="16" height="16" viewBox="0 0 16 16" fill="none" xmlns="http://www.w3.org/2000/svg">
<g clip-path="url(#clip0_402_318)">
<path d="M15.75 0.0982143C15.9464 0.241071 16.0268 0.431548 15.9911 0.669643L13.7054 14.3839C13.6756 14.5565 13.5804 14.6905 13.4197 14.7857C13.3363 14.8333 13.2441 14.8571 13.1429 14.8571C13.0774 14.8571 13.006 14.8423 12.9286 14.8125L8.88394 13.1607L6.72323 15.7946C6.61609 15.9315 6.47025 16 6.28573 16C6.20835 16 6.14287 15.9881 6.0893 15.9643C5.97621 15.9226 5.88543 15.8527 5.81698 15.7545C5.74853 15.6563 5.7143 15.5476 5.7143 15.4286V12.3125L13.4286 2.85714L3.88394 11.1161L0.357158 9.66964C0.13692 9.58631 0.0178726 9.42262 1.5501e-05 9.17857C-0.0118893 8.94048 0.0833488 8.76488 0.28573 8.65179L15.1429 0.0803571C15.2322 0.0267857 15.3274 0 15.4286 0C15.5476 0 15.6548 0.0327381 15.75 0.0982143Z" fill="white"/>
</g>
<defs>
<clipPath id="clip0_402_318">
<rect width="16" height="16" fill="white"/>
</clipPath>
</defs>
</svg>
