<svg width="80" height="80" viewBox="0 0 80 80" fill="none" xmlns="http://www.w3.org/2000/svg">
<path d="M0 40C0 17.9086 17.9086 0 40 0C62.0914 0 80 17.9086 80 40C80 62.0914 62.0914 80 40 80C17.9086 80 0 62.0914 0 40Z" fill="white" fill-opacity="0.1"/>
<path d="M56.6668 23.333H23.3334C21.0417 23.333 19.1876 25.208 19.1876 27.4997L19.1667 52.4997C19.1667 54.7913 21.0417 56.6663 23.3334 56.6663H56.6668C58.9584 56.6663 60.8334 54.7913 60.8334 52.4997V27.4997C60.8334 25.208 58.9584 23.333 56.6668 23.333ZM55.8334 32.1872L41.1042 41.3955C40.4376 41.8122 39.5626 41.8122 38.8959 41.3955L24.1667 32.1872C23.9578 32.0699 23.7749 31.9115 23.629 31.7215C23.4831 31.5314 23.3773 31.3138 23.3179 31.0817C23.2586 30.8496 23.247 30.6079 23.2837 30.3711C23.3205 30.1344 23.4049 29.9076 23.5319 29.7045C23.6589 29.5013 23.8258 29.326 24.0224 29.1892C24.2191 29.0525 24.4415 28.957 24.6761 28.9086C24.9107 28.8603 25.1528 28.86 25.3875 28.9079C25.6222 28.9558 25.8448 29.0508 26.0417 29.1872L40.0001 37.9163L53.9584 29.1872C54.1554 29.0508 54.3779 28.9558 54.6127 28.9079C54.8474 28.86 55.0894 28.8603 55.3241 28.9086C55.5587 28.957 55.7811 29.0525 55.9777 29.1892C56.1744 29.326 56.3413 29.5013 56.4682 29.7045C56.5952 29.9076 56.6796 30.1344 56.7164 30.3711C56.7532 30.6079 56.7416 30.8496 56.6822 31.0817C56.6229 31.3138 56.517 31.5314 56.3712 31.7215C56.2253 31.9115 56.0423 32.0699 55.8334 32.1872Z" fill="white"/>
</svg>
