<svg width="62" height="62" viewBox="0 0 62 62" fill="none" xmlns="http://www.w3.org/2000/svg">
<rect x="1" y="1" width="60" height="60" rx="30" fill="white" fill-opacity="0.4"/>
<rect x="1" y="1" width="60" height="60" rx="30" stroke="url(#paint0_linear_15_159)"/>
<path d="M46.4381 33.1604H45.5381C45.3689 27.62 42.2009 22.9868 37.4777 20.9204H43.3781V21.8204C43.3781 21.9636 43.4349 22.101 43.5362 22.2022C43.6375 22.3035 43.7748 22.3604 43.9181 22.3604C44.0613 22.3604 44.1986 22.3035 44.2999 22.2022C44.4012 22.101 44.4581 21.9636 44.4581 21.8204V18.9404C44.4581 18.7972 44.4012 18.6598 44.2999 18.5586C44.1986 18.4573 44.0613 18.4004 43.9181 18.4004C43.7748 18.4004 43.6375 18.4573 43.5362 18.5586C43.4349 18.6598 43.3781 18.7972 43.3781 18.9404V19.8404H33.6581V18.9404C33.6581 18.7972 33.6012 18.6598 33.4999 18.5586C33.3986 18.4573 33.2613 18.4004 33.1181 18.4004H30.2381C30.0948 18.4004 29.9575 18.4573 29.8562 18.5586C29.7549 18.6598 29.6981 18.7972 29.6981 18.9404V19.8404H19.9781V18.9404C19.9781 18.7972 19.9212 18.6598 19.8199 18.5586C19.7186 18.4573 19.5813 18.4004 19.4381 18.4004C19.2948 18.4004 19.1575 18.4573 19.0562 18.5586C18.9549 18.6598 18.8981 18.7972 18.8981 18.9404V21.8204C18.8981 21.9636 18.9549 22.101 19.0562 22.2022C19.1575 22.3035 19.2948 22.3604 19.4381 22.3604C19.5813 22.3604 19.7186 22.3035 19.8199 22.2022C19.9212 22.101 19.9781 21.9636 19.9781 21.8204V20.9204H25.8605C23.3858 21.9753 21.2728 23.7293 19.7803 25.9674C18.2878 28.2055 17.4808 30.8304 17.4581 33.5204H16.5581C16.4148 33.5204 16.2775 33.5773 16.1762 33.6786C16.0749 33.7798 16.0181 33.9172 16.0181 34.0604V36.9404C16.0181 37.0836 16.0749 37.221 16.1762 37.3222C16.2775 37.4235 16.4148 37.4804 16.5581 37.4804H19.4381C19.5813 37.4804 19.7186 37.4235 19.8199 37.3222C19.9212 37.221 19.9781 37.0836 19.9781 36.9404V34.0604C19.9781 33.9172 19.9212 33.7798 19.8199 33.6786C19.7186 33.5773 19.5813 33.5204 19.4381 33.5204H18.5381C18.5741 30.435 19.723 27.4664 21.7735 25.1606C23.8239 22.8549 26.638 21.367 29.6981 20.9708V21.8204C29.6981 21.9636 29.7549 22.101 29.8562 22.2022C29.9575 22.3035 30.0948 22.3604 30.2381 22.3604H31.1669L25.5617 36.584C25.5143 36.708 25.5143 36.8452 25.5617 36.9692L27.5705 42.4376L27.5381 45.9368C27.5376 46.008 27.5512 46.0786 27.5781 46.1445C27.605 46.2105 27.6447 46.2704 27.6949 46.321C27.7451 46.3715 27.8048 46.4116 27.8706 46.4389C27.9363 46.4663 28.0068 46.4804 28.0781 46.4804H34.9181C35.0613 46.4804 35.1986 46.4235 35.2999 46.3222C35.4012 46.221 35.4581 46.0836 35.4581 45.9404V42.4556L37.9097 37.0016C37.9379 36.935 37.9524 36.8633 37.9524 36.791C37.9524 36.7186 37.9379 36.647 37.9097 36.5804L32.1893 22.3604H33.1181C33.2613 22.3604 33.3986 22.3035 33.4999 22.2022C33.6012 22.101 33.6581 21.9636 33.6581 21.8204V20.9708C39.7781 21.8096 44.2385 26.8388 44.4581 33.1604H43.5581C43.4148 33.1604 43.2775 33.2173 43.1762 33.3186C43.0749 33.4198 43.0181 33.5572 43.0181 33.7004V36.5804C43.0181 36.7236 43.0749 36.861 43.1762 36.9622C43.2775 37.0635 43.4148 37.1204 43.5581 37.1204H46.4381C46.5813 37.1204 46.7186 37.0635 46.8199 36.9622C46.9212 36.861 46.9781 36.7236 46.9781 36.5804V33.7004C46.9781 33.5572 46.9212 33.4198 46.8199 33.3186C46.7186 33.2173 46.5813 33.1604 46.4381 33.1604ZM18.8981 36.4004H17.0981V34.6004H18.8981V36.4004ZM28.6181 45.4004L28.6397 42.8804H34.3781V45.4004H28.6181ZM34.5689 41.8004H28.4849L26.6417 36.7892L31.1381 25.3808V35.1404C31.1381 35.2836 31.1949 35.421 31.2962 35.5222C31.3975 35.6235 31.5348 35.6804 31.6781 35.6804C31.8213 35.6804 31.9586 35.6235 32.0599 35.5222C32.1612 35.421 32.2181 35.2836 32.2181 35.1404V25.3268L36.8297 36.7604L34.5689 41.8004ZM32.5781 21.2804H30.7781V19.4804H32.5781V21.2804ZM45.8981 36.0404H44.0981V34.2404H45.8981V36.0404Z" fill="white"/>
<defs>
<linearGradient id="paint0_linear_15_159" x1="1.49805" y1="1" x2="61.498" y2="61" gradientUnits="userSpaceOnUse">
<stop offset="0.138693" stop-color="white"/>
<stop offset="0.414413" stop-color="white" stop-opacity="0"/>
</linearGradient>
</defs>
</svg>
