<svg width="62" height="62" viewBox="0 0 62 62" fill="none" xmlns="http://www.w3.org/2000/svg">
<rect x="1" y="1" width="60" height="60" rx="30" fill="white" fill-opacity="0.4"/>
<rect x="1" y="1" width="60" height="60" rx="30" stroke="url(#paint0_linear_15_127)"/>
<path d="M30.4981 14.5C27.2347 14.5 24.0445 15.4677 21.3311 17.2808C18.6177 19.0938 16.5029 21.6708 15.254 24.6858C14.0052 27.7007 13.6784 31.0183 14.3151 34.219C14.9518 37.4197 16.5232 40.3597 18.8308 42.6673C21.1384 44.9748 24.0784 46.5463 27.2791 47.183C30.4798 47.8196 33.7974 47.4929 36.8123 46.244C39.8273 44.9951 42.4042 42.8803 44.2173 40.1669C46.0303 37.4535 46.9981 34.2634 46.9981 31C46.9931 26.6255 45.2531 22.4315 42.1598 19.3382C39.0666 16.2449 34.8726 14.505 30.4981 14.5ZM44.2366 37H39.5956C39.976 35.2746 40.1872 33.5163 40.2263 31.75H45.4598C45.3751 33.5599 44.9606 35.3391 44.2366 37ZM15.5363 31.75H20.7698C20.8089 33.5163 21.0202 35.2746 21.4006 37H16.7596C16.0355 35.3391 15.621 33.5599 15.5363 31.75ZM16.7596 25H21.4006C21.0202 26.7254 20.8089 28.4837 20.7698 30.25H15.5363C15.621 28.4401 16.0355 26.6609 16.7596 25ZM31.2481 23.5V16.069C33.9773 16.519 36.3211 19.396 37.6321 23.5H31.2481ZM38.0543 25C38.4609 26.7219 38.6872 28.4813 38.7293 30.25H31.2481V25H38.0543ZM29.7481 16.069V23.5H23.3641C24.6751 19.396 27.0188 16.519 29.7481 16.069ZM29.7481 25V30.25H22.2691C22.3112 28.4813 22.5375 26.7219 22.9441 25H29.7481ZM22.2691 31.75H29.7481V37H22.9418C22.536 35.2781 22.3105 33.5186 22.2691 31.75ZM29.7481 38.5V45.931C27.0188 45.481 24.6751 42.604 23.3641 38.5H29.7481ZM31.2481 45.931V38.5H37.6321C36.3211 42.604 33.9773 45.481 31.2481 45.931ZM31.2481 37V31.75H38.7271C38.6849 33.5187 38.4586 35.2782 38.0521 37H31.2481ZM40.2263 30.25C40.1872 28.4837 39.976 26.7254 39.5956 25H44.2366C44.9606 26.6609 45.3751 28.4401 45.4598 30.25H40.2263ZM43.4686 23.5H39.2078C38.5569 21.0561 37.3328 18.8026 35.6371 16.9262C38.9343 18.1372 41.7045 20.4625 43.4686 23.5ZM25.3591 16.9262C23.6633 18.8026 22.4392 21.0561 21.7883 23.5H17.5276C19.2916 20.4625 22.0618 18.1372 25.3591 16.9262ZM17.5276 38.5H21.7883C22.4392 40.9439 23.6633 43.1974 25.3591 45.0737C22.0618 43.8628 19.2916 41.5374 17.5276 38.5ZM35.6371 45.0737C37.3328 43.1974 38.5569 40.9439 39.2078 38.5H43.4686C41.7045 41.5374 38.9343 43.8628 35.6371 45.0737Z" fill="white"/>
<defs>
<linearGradient id="paint0_linear_15_127" x1="1.49805" y1="1" x2="61.498" y2="61" gradientUnits="userSpaceOnUse">
<stop offset="0.138693" stop-color="white"/>
<stop offset="0.414413" stop-color="white" stop-opacity="0"/>
</linearGradient>
</defs>
</svg>
