<svg width="80" height="80" viewBox="0 0 80 80" fill="none" xmlns="http://www.w3.org/2000/svg">
<rect width="80" height="80" rx="40" fill="white" fill-opacity="0.1"/>
<path d="M56.5625 58.75C52.2222 58.75 47.934 57.8042 43.6979 55.9125C39.4618 54.0208 35.6076 51.3382 32.1354 47.8646C28.6632 44.391 25.9812 40.5368 24.0896 36.3021C22.1979 32.0674 21.2514 27.7792 21.25 23.4375C21.25 22.8125 21.4583 22.2917 21.875 21.875C22.2917 21.4583 22.8125 21.25 23.4375 21.25H31.875C32.3611 21.25 32.7951 21.4153 33.1771 21.7458C33.559 22.0764 33.7847 22.4667 33.8542 22.9167L35.2083 30.2083C35.2778 30.7639 35.2604 31.2326 35.1562 31.6146C35.0521 31.9965 34.8611 32.3264 34.5833 32.6042L29.5312 37.7083C30.2257 38.9931 31.05 40.234 32.0042 41.4312C32.9583 42.6285 34.009 43.7833 35.1562 44.8958C36.2326 45.9722 37.3611 46.9708 38.5417 47.8917C39.7222 48.8125 40.9722 49.6542 42.2917 50.4167L47.1875 45.5208C47.5 45.2083 47.9083 44.9743 48.4125 44.8187C48.9167 44.6632 49.4111 44.6194 49.8958 44.6875L57.0833 46.1458C57.5694 46.2847 57.9687 46.5368 58.2812 46.9021C58.5937 47.2674 58.75 47.675 58.75 48.125V56.5625C58.75 57.1875 58.5417 57.7083 58.125 58.125C57.7083 58.5417 57.1875 58.75 56.5625 58.75Z" fill="white"/>
</svg>
