<svg width="80" height="80" viewBox="0 0 80 80" fill="none" xmlns="http://www.w3.org/2000/svg">
<path d="M0 40C0 17.9086 17.9086 0 40 0C62.0914 0 80 17.9086 80 40C80 62.0914 62.0914 80 40 80C17.9086 80 0 62.0914 0 40Z" fill="white" fill-opacity="0.1"/>
<path d="M39.9998 38.9587C38.6185 38.9587 37.2937 38.4099 36.317 37.4332C35.3402 36.4564 34.7915 35.1317 34.7915 33.7503C34.7915 32.369 35.3402 31.0442 36.317 30.0675C37.2937 29.0907 38.6185 28.542 39.9998 28.542C41.3812 28.542 42.7059 29.0907 43.6827 30.0675C44.6594 31.0442 45.2082 32.369 45.2082 33.7503C45.2082 34.4343 45.0735 35.1116 44.8117 35.7435C44.55 36.3754 44.1663 36.9495 43.6827 37.4332C43.199 37.9168 42.6249 38.3005 41.993 38.5622C41.3611 38.8239 40.6838 38.9587 39.9998 38.9587ZM39.9998 19.167C36.1321 19.167 32.4228 20.7034 29.6879 23.4384C26.953 26.1733 25.4165 29.8826 25.4165 33.7503C25.4165 44.6878 39.9998 60.8337 39.9998 60.8337C39.9998 60.8337 54.5832 44.6878 54.5832 33.7503C54.5832 29.8826 53.0467 26.1733 50.3118 23.4384C47.5769 20.7034 43.8676 19.167 39.9998 19.167Z" fill="white"/>
</svg>
